name C:\Users\u0101727\Documents\MyRepositories\upper-imu-dc\Results\main_tracking\Case_31\FLX01_angularVelocities_groundFrame.mot
datacolumns 4
datarows 105
range 5.01000000 6.05000000
endheader 
time	radius_imu_x	radius_imu_y	radius_imu_z	
          5.01000000	          0.77233834	          0.04919416	         -1.25205399	
          5.02000000	          0.74393219	          0.20168174	         -1.23935833	
          5.03000000	          0.72538671	          0.35923725	         -1.21989605	
          5.04000000	          0.72460192	          0.52121621	         -1.20574491	
          5.05000000	          0.76339739	          0.67542552	         -1.17339590	
          5.06000000	          0.86114114	          0.80946171	         -1.10268289	
          5.07000000	          0.97210119	          0.94441400	         -1.04050715	
          5.08000000	          1.09432988	          1.07794207	         -0.97210312	
          5.09000000	          1.20124576	          1.22070425	         -0.90739569	
          5.10000000	          1.27539472	          1.38017218	         -0.85343555	
          5.11000000	          1.30821918	          1.56041882	         -0.81534289	
          5.12000000	          1.30215826	          1.76048579	         -0.79447039	
          5.13000000	          1.26652108	          1.97576417	         -0.78937731	
          5.14000000	          1.21163710	          2.20065390	         -0.79777468	
          5.15000000	          1.14399401	          2.43116165	         -0.81828912	
          5.16000000	          1.06473873	          2.66600658	         -0.85105974	
          5.17000000	          0.97137098	          2.90597747	         -0.89714948	
          5.18000000	          0.86090400	          3.15221763	         -0.95735314	
          5.19000000	          0.73316031	          3.40412135	         -1.03089149	
          5.20000000	          0.59331922	          3.65742409	         -1.11436495	
          5.21000000	          0.45244849	          3.90336706	         -1.20149731	
          5.22000000	          0.32533849	          4.12955672	         -1.28397446	
          5.23000000	          0.22660672	          4.32216243	         -1.35304088	
          5.24000000	          0.16673296	          4.46855203	         -1.40123528	
          5.25000000	          0.14914547	          4.55966235	         -1.42384382	
          5.26000000	          0.16926093	          4.59140333	         -1.41967904	
          5.27000000	          0.21580514	          4.56466536	         -1.39102969	
          5.28000000	          0.27411864	          4.48383706	         -1.34277253	
          5.29000000	          0.33018911	          4.35446983	         -1.28104479	
          5.30000000	          0.37378220	          4.18122947	         -1.21208160	
          5.31000000	          0.39989073	          3.96687774	         -1.14158276	
          5.32000000	          0.40870159	          3.71230586	         -1.07457697	
          5.33000000	          0.40460090	          3.41727673	         -1.01550802	
          5.34000000	          0.39481543	          3.08152178	         -0.96864596	
          5.35000000	          0.38768535	          2.70661207	         -0.93929964	
          5.36000000	          0.39257093	          2.29396451	         -0.92865715	
          5.37000000	          0.38526741	          1.85211038	         -0.93145877	
          5.38000000	          0.44385554	          1.37960366	         -0.95848010	
          5.39000000	          0.46203267	          0.89255488	         -0.99058703	
          5.40000000	          0.52702484	          0.37264879	         -1.00484702	
          5.41000000	          0.60623240	         -0.16899494	         -0.98539894	
          5.42000000	          0.64565882	         -0.66208309	         -0.97311574	
          5.43000000	          0.67915845	         -1.09721277	         -0.96907018	
          5.44000000	          0.72068262	         -1.46141347	         -0.98384286	
          5.45000000	          0.78088804	         -1.74986110	         -1.03407991	
          5.46000000	          0.85526746	         -2.02330472	         -1.03089811	
          5.47000000	          0.86471904	         -2.15882860	         -1.04667768	
          5.48000000	          0.89522046	         -2.29924783	         -1.00700243	
          5.49000000	          0.92238329	         -2.39593885	         -0.94854475	
          5.50000000	          0.96260420	         -2.46535974	         -0.87494480	
          5.51000000	          1.01288536	         -2.49148560	         -0.82561165	
          5.52000000	          1.06205492	         -2.52893036	         -0.77812691	
          5.53000000	          1.08527664	         -2.45506432	         -0.79208688	
          5.54000000	          1.09456892	         -2.37402918	         -0.84094145	
          5.55000000	          1.08052091	         -2.27590513	         -0.90196403	
          5.56000000	          1.07093949	         -2.21206306	         -0.94000471	
          5.57000000	          1.06608902	         -2.18178833	         -0.95484904	
          5.58000000	          1.04336395	         -2.14146268	         -0.97240840	
          5.59000000	          0.99354666	         -2.07204704	         -1.00312946	
          5.60000000	          0.91059585	         -1.95911043	         -1.05337496	
          5.61000000	          0.79344068	         -1.79543190	         -1.12520613	
          5.62000000	          0.64534973	         -1.58016864	         -1.21740453	
          5.63000000	          0.47380318	         -1.31931069	         -1.32563183	
          5.64000000	          0.29028124	         -1.02661860	         -1.44226637	
          5.65000000	          0.10988973	         -0.72475388	         -1.55610173	
          5.66000000	         -0.04967881	         -0.44530495	         -1.65245403	
          5.67000000	         -0.17019646	         -0.22627926	         -1.71426164	
          5.68000000	         -0.23604742	         -0.10570684	         -1.72483284	
          5.69000000	         -0.23773668	         -0.11203719	         -1.67197854	
          5.70000000	         -0.17585781	         -0.24911753	         -1.55575482	
          5.71000000	         -0.06595071	         -0.47849587	         -1.39562213	
          5.72000000	          0.04504856	         -0.65259335	         -1.27107871	
          5.73000000	          0.11476078	         -0.78017333	         -1.15143846	
          5.74000000	          0.16404028	         -0.73071620	         -1.11285245	
          5.75000000	          0.18220107	         -0.59281513	         -1.10315009	
          5.76000000	          0.19866569	         -0.48392865	         -1.05223854	
          5.77000000	          0.21906713	         -0.29132800	         -1.03204990	
          5.78000000	          0.22286407	         -0.03530880	         -1.02078932	
          5.79000000	          0.19551680	          0.40218084	         -1.07637967	
          5.80000000	          0.16598616	          0.85828818	         -1.12995802	
          5.81000000	          0.15924148	          1.24745319	         -1.14926010	
          5.82000000	          0.14602419	          1.71944436	         -1.20106530	
          5.83000000	          0.15371569	          2.10066127	         -1.20435513	
          5.84000000	          0.20146233	          2.21996921	         -1.09711550	
          5.85000000	          0.26952692	          2.15250220	         -0.91941268	
          5.86000000	          0.32638806	          2.14677780	         -0.78428248	
          5.87000000	          0.34185542	          2.44462410	         -0.79170955	
          5.88000000	          0.37264214	          2.72603333	         -0.78943298	
          5.89000000	          0.42577807	          2.71311066	         -0.68054257	
          5.90000000	          0.48255917	          2.55124636	         -0.51925405	
          5.91000000	          0.52074270	          2.47510256	         -0.39191081	
          5.92000000	          0.53277147	          2.54137121	         -0.33303532	
          5.93000000	          0.53281314	          2.67765174	         -0.31072945	
          5.94000000	          0.52424042	          2.85224111	         -0.31006116	
          5.95000000	          0.50872272	          3.04307008	         -0.31936160	
          5.96000000	          0.48708181	          3.23633131	         -0.33107483	
          5.97000000	          0.46005763	          3.42084057	         -0.33992173	
          5.98000000	          0.42837176	          3.58745235	         -0.34233011	
          5.99000000	          0.39269129	          3.72875075	         -0.33569000	
          6.00000000	          0.35353642	          3.83965967	         -0.31785259	
          6.01000000	          0.31152979	          3.91339753	         -0.28538880	
          6.02000000	          0.26705750	          3.95146405	         -0.23695529	
          6.03000000	          0.22470966	          3.88141006	         -0.14967129	
          6.04000000	          0.19790434	          3.67640853	         -0.01972826	
          6.05000000	          0.16541150	          3.69393161	          0.02564835	
